<svg width="132" height="33" viewBox="0 0 132 33" fill="none" xmlns="http://www.w3.org/2000/svg">
<g clip-path="url(#clip0_1208_11380)">
<path d="M25.7404 3.80959H16.0728L18.1855 0.650303C17.4706 0.552533 16.7396 0.5 15.9969 0.5C7.16244 0.5 0 7.66348 0 16.5007C0 21.6592 2.44098 26.2456 6.23011 29.1729H16.1429L14.1017 32.3891C14.7232 32.4621 15.3564 32.5015 15.9969 32.5015C24.8329 32.5015 31.9954 25.338 31.9954 16.5007C31.9954 11.3321 29.5442 6.7354 25.7404 3.81105V3.80959Z" fill="#00FF70"/>
<path d="M27.608 12.9562V10.1953H16.1005V11.1628C15.8452 10.9862 15.568 10.8315 15.2689 10.7031C14.4854 10.3646 13.6654 10.1968 12.8075 10.1968H4.78857V22.7974H8.23921V18.9888H12.8075C13.6917 18.9888 14.5189 18.8399 15.2893 18.5408C15.5797 18.4284 15.8496 18.2898 16.1005 18.1278V22.8047H27.608V20.0555H19.7321V17.6579H27.608V15.0882H19.7321V12.9562H27.608ZM14.0039 15.7755C13.7019 16.079 13.2977 16.2308 12.7914 16.2308H8.23775V13.0876H12.7856C13.1212 13.0876 13.4174 13.1605 13.6741 13.305C13.9309 13.4495 14.125 13.6406 14.2563 13.877C14.3891 14.1134 14.4547 14.3717 14.4547 14.6504C14.4547 15.0969 14.3045 15.472 14.0024 15.7755H14.0039Z" fill="white"/>
<path d="M51.3437 10.417C50.5223 10.0624 49.6615 9.88586 48.7612 9.88586H40.3469V23.1067H43.9668V19.1113H48.7598C49.6877 19.1113 50.5558 18.9551 51.3627 18.6414C52.1696 18.3277 52.829 17.8286 53.3412 17.1457C53.8533 16.4613 54.1086 15.5959 54.1086 14.5467C54.1086 13.5573 53.8533 12.711 53.3412 12.0062C52.829 11.3013 52.1623 10.7716 51.3408 10.4185L51.3437 10.417ZM50.016 15.7389C49.6994 16.0571 49.2763 16.2161 48.7452 16.2161H43.9683V12.9182H48.7393C49.0924 12.9182 49.4032 12.9941 49.6717 13.1458C49.9401 13.2976 50.1444 13.4975 50.283 13.7471C50.4216 13.9951 50.4917 14.2651 50.4917 14.5584C50.4917 15.0268 50.3341 15.4194 50.0175 15.7389H50.016Z" fill="#0040D6"/>
<path d="M64.1353 15.0925C63.7501 14.5423 63.2467 14.1075 62.6252 13.7908C62.0036 13.4742 61.2639 13.3034 60.403 13.2772C59.1993 13.2348 58.1736 13.4245 57.3259 13.8463C56.4782 14.268 55.8362 14.8648 55.3985 15.6368C54.9608 16.4087 54.7419 17.2974 54.7419 18.2999C54.7419 19.1784 54.9652 20.0043 55.4131 20.7763C55.861 21.5482 56.5015 22.1684 57.3361 22.6339C58.1707 23.1009 59.1439 23.3212 60.2542 23.2964C61.0917 23.2876 61.8431 23.1125 62.507 22.7696C63.1708 22.4267 63.6757 21.9787 64.0229 21.4285L64.0973 23.1052H67.4415V13.4435H64.2345L64.1338 15.091L64.1353 15.0925ZM62.9899 19.4367C62.7725 19.7811 62.469 20.051 62.0795 20.248C61.6885 20.4436 61.2478 20.5413 60.7547 20.5413C60.2615 20.5413 59.8194 20.4392 59.4299 20.2363C59.0388 20.0335 58.7353 19.7592 58.5194 19.4148C58.302 19.0704 58.194 18.6895 58.194 18.2751C58.194 17.5557 58.4202 16.9983 58.871 16.6028C59.3219 16.2073 59.9507 16.0103 60.7561 16.0103C61.2843 16.0103 61.741 16.1023 62.1247 16.2861C62.5099 16.47 62.8046 16.7327 63.0089 17.0756C63.2146 17.4185 63.3167 17.8184 63.3167 18.2751C63.3167 18.7041 63.2088 19.0908 62.9914 19.4367H62.9899Z" fill="#0040D6"/>
<path d="M74.0684 13.6288C73.4819 13.7762 72.9917 14.0272 72.5948 14.3803C72.1994 14.7349 71.8478 15.2311 71.5384 15.8688L71.4378 13.4449H68.6816V23.1067H72.052V19.9824C72.052 19.0003 72.1527 18.278 72.3555 17.8154C72.5583 17.3528 72.961 16.9895 73.5651 16.7239C74.1691 16.4583 75.0518 16.327 76.2118 16.327V13.4449C75.3699 13.4201 74.655 13.4814 74.0684 13.6288Z" fill="#0040D6"/>
<path d="M83.5141 9.88586H80.0139V13.4523H77.4868V16.3314H80.0139V23.1067H83.5141V16.3314H85.9522V13.4523H83.5141V9.88586Z" fill="#0040D6"/>
<path d="M87.2188 23.1067H99.285V20.2247H91.0268V17.7104H99.285V15.0166H91.0268V12.781H99.285V9.88586H87.2188V23.1067Z" fill="#00FF70"/>
<path d="M108.748 19.5782L104.559 9.88586H100.54L106.643 23.1067H107.167H110.275H110.722L117.113 9.88586H113.093L108.748 19.5782Z" fill="#00FF70"/>
<path d="M131.127 12.8351C130.517 11.8019 129.62 11.0168 128.434 10.4798C127.248 9.94281 125.827 9.67285 124.169 9.67285C122.512 9.67285 121.104 9.94135 119.917 10.4798C118.731 11.0168 117.834 11.8034 117.224 12.8351C116.614 13.8682 116.34 15.1144 116.4 16.5737C116.459 17.9673 116.821 19.1726 117.487 20.1882C118.15 21.2039 119.058 21.9817 120.208 22.5201C121.357 23.0586 122.678 23.3271 124.169 23.3271C125.66 23.3271 126.981 23.0586 128.13 22.5201C129.28 21.9817 130.189 21.2053 130.857 20.1882C131.526 19.1726 131.89 17.9673 131.95 16.5737C132.01 15.1144 131.736 13.8682 131.126 12.8351H131.127ZM127.719 18.5378C127.341 19.0938 126.841 19.5141 126.216 19.8015C125.592 20.089 124.91 20.232 124.17 20.232C123.431 20.232 122.749 20.089 122.125 19.8015C121.5 19.5141 121.001 19.0923 120.628 18.5349C120.254 17.9775 120.059 17.315 120.04 16.5474C120.021 15.6981 120.17 14.9904 120.483 14.4227C120.799 13.8551 121.267 13.4261 121.89 13.1371C122.513 12.8482 123.273 12.7037 124.17 12.7037C125.068 12.7037 125.828 12.8496 126.45 13.14C127.073 13.4304 127.544 13.8595 127.862 14.4271C128.181 14.9948 128.33 15.701 128.313 16.5459C128.294 17.3164 128.097 17.9804 127.719 18.5349V18.5378Z" fill="#00FF70"/>
</g>
<defs>
<clipPath id="clip0_1208_11380">
<rect width="131.959" height="32" fill="white" transform="translate(0 0.5)"/>
</clipPath>
</defs>
</svg>
